<mxfile host="65bd71144e">
    <diagram id="-vdNNs6oTIfSFtGjrdUC" name="第 1 页">
        <mxGraphModel dx="683" dy="391" grid="1" gridSize="10" guides="1" tooltips="1" connect="1" arrows="1" fold="1" page="1" pageScale="1" pageWidth="1200" pageHeight="1920" math="0" shadow="0">
            <root>
                <mxCell id="0"/>
                <mxCell id="1" parent="0"/>
                <mxCell id="67" style="edgeStyle=orthogonalEdgeStyle;html=1;exitX=0.5;exitY=0;exitDx=0;exitDy=0;fontSize=9;fontColor=#000000;strokeWidth=2;rounded=0;endArrow=none;endFill=0;" edge="1" parent="1" source="63" target="43">
                    <mxGeometry relative="1" as="geometry">
                        <mxPoint x="680" y="1390" as="targetPoint"/>
                    </mxGeometry>
                </mxCell>
                <mxCell id="16" value="" style="strokeWidth=2;html=1;shape=mxgraph.flowchart.annotation_2;align=left;labelPosition=right;pointerEvents=1;rotation=-90;" vertex="1" parent="1">
                    <mxGeometry x="484" y="130" width="210" height="610" as="geometry"/>
                </mxCell>
                <mxCell id="10" value="" style="strokeWidth=2;html=1;shape=mxgraph.flowchart.annotation_2;align=left;labelPosition=right;pointerEvents=1;rotation=90;" vertex="1" parent="1">
                    <mxGeometry x="484" y="480" width="210" height="610" as="geometry"/>
                </mxCell>
                <mxCell id="2" value="&lt;font style=&quot;font-size: 16px&quot; color=&quot;#000000&quot;&gt;&lt;b&gt;快递驿站&lt;/b&gt;&lt;/font&gt;" style="sketch=0;pointerEvents=1;shadow=0;dashed=0;html=1;strokeColor=none;labelPosition=center;verticalLabelPosition=bottom;verticalAlign=top;outlineConnect=0;align=center;shape=mxgraph.office.concepts.home_page;fillColor=#7FBA42;" vertex="1" parent="1">
                    <mxGeometry x="514" y="540" width="150" height="150" as="geometry"/>
                </mxCell>
                <mxCell id="3" value="快递1" style="sketch=0;pointerEvents=1;shadow=0;dashed=0;html=1;strokeColor=none;fillColor=#505050;labelPosition=center;verticalLabelPosition=bottom;verticalAlign=top;outlineConnect=0;align=center;shape=mxgraph.office.concepts.app_part;" vertex="1" parent="1">
                    <mxGeometry x="254" y="880" width="96" height="90" as="geometry"/>
                </mxCell>
                <mxCell id="4" value="快递n" style="sketch=0;pointerEvents=1;shadow=0;dashed=0;html=1;strokeColor=none;fillColor=#505050;labelPosition=center;verticalLabelPosition=bottom;verticalAlign=top;outlineConnect=0;align=center;shape=mxgraph.office.concepts.app_part;" vertex="1" parent="1">
                    <mxGeometry x="704" y="880" width="96" height="90" as="geometry"/>
                </mxCell>
                <mxCell id="5" value="快递2" style="sketch=0;pointerEvents=1;shadow=0;dashed=0;html=1;strokeColor=none;fillColor=#505050;labelPosition=center;verticalLabelPosition=bottom;verticalAlign=top;outlineConnect=0;align=center;shape=mxgraph.office.concepts.app_part;" vertex="1" parent="1">
                    <mxGeometry x="434" y="880" width="96" height="90" as="geometry"/>
                </mxCell>
                <mxCell id="6" value="快递……" style="sketch=0;pointerEvents=1;shadow=0;dashed=0;html=1;strokeColor=none;fillColor=#505050;labelPosition=center;verticalLabelPosition=bottom;verticalAlign=top;outlineConnect=0;align=center;shape=mxgraph.office.concepts.app_part;" vertex="1" parent="1">
                    <mxGeometry x="854" y="880" width="96" height="90" as="geometry"/>
                </mxCell>
                <mxCell id="7" value="" style="endArrow=none;dashed=1;html=1;dashPattern=1 3;strokeWidth=2;" edge="1" parent="1" source="5" target="4">
                    <mxGeometry width="50" height="50" relative="1" as="geometry">
                        <mxPoint x="564" y="870" as="sourcePoint"/>
                        <mxPoint x="614" y="820" as="targetPoint"/>
                    </mxGeometry>
                </mxCell>
                <mxCell id="14" value="" style="line;strokeWidth=2;direction=south;html=1;" vertex="1" parent="1">
                    <mxGeometry x="484" y="790" width="10" height="100" as="geometry"/>
                </mxCell>
                <mxCell id="15" value="" style="line;strokeWidth=2;direction=south;html=1;" vertex="1" parent="1">
                    <mxGeometry x="747" y="790" width="10" height="100" as="geometry"/>
                </mxCell>
                <mxCell id="18" value="&lt;font color=&quot;#000000&quot;&gt;用户1&lt;/font&gt;" style="sketch=0;pointerEvents=1;shadow=0;dashed=0;html=1;strokeColor=#432D57;labelPosition=center;verticalLabelPosition=bottom;verticalAlign=top;outlineConnect=0;align=center;shape=mxgraph.office.users.users;fillColor=#76608a;fontSize=16;fontColor=#ffffff;" vertex="1" parent="1">
                    <mxGeometry x="247" y="240" width="110" height="90" as="geometry"/>
                </mxCell>
                <mxCell id="19" value="&lt;font color=&quot;#000000&quot;&gt;用户2&lt;/font&gt;" style="sketch=0;pointerEvents=1;shadow=0;dashed=0;html=1;strokeColor=#432D57;labelPosition=center;verticalLabelPosition=bottom;verticalAlign=top;outlineConnect=0;align=center;shape=mxgraph.office.users.users;fillColor=#76608a;fontSize=16;fontColor=#ffffff;" vertex="1" parent="1">
                    <mxGeometry x="404" y="240" width="110" height="90" as="geometry"/>
                </mxCell>
                <mxCell id="20" value="&lt;font color=&quot;#000000&quot;&gt;用户n&lt;/font&gt;" style="sketch=0;pointerEvents=1;shadow=0;dashed=0;html=1;strokeColor=#432D57;labelPosition=center;verticalLabelPosition=bottom;verticalAlign=top;outlineConnect=0;align=center;shape=mxgraph.office.users.users;fillColor=#76608a;fontSize=16;fontColor=#ffffff;" vertex="1" parent="1">
                    <mxGeometry x="637" y="240" width="110" height="90" as="geometry"/>
                </mxCell>
                <mxCell id="21" value="&lt;font color=&quot;#000000&quot;&gt;用户……&lt;/font&gt;" style="sketch=0;pointerEvents=1;shadow=0;dashed=0;html=1;strokeColor=#432D57;labelPosition=center;verticalLabelPosition=bottom;verticalAlign=top;outlineConnect=0;align=center;shape=mxgraph.office.users.users;fillColor=#76608a;fontSize=16;fontColor=#ffffff;" vertex="1" parent="1">
                    <mxGeometry x="840" y="240" width="110" height="90" as="geometry"/>
                </mxCell>
                <mxCell id="22" value="" style="line;strokeWidth=2;direction=south;html=1;" vertex="1" parent="1">
                    <mxGeometry x="464" y="330" width="10" height="100" as="geometry"/>
                </mxCell>
                <mxCell id="23" value="" style="line;strokeWidth=2;direction=south;html=1;" vertex="1" parent="1">
                    <mxGeometry x="694" y="330" width="10" height="100" as="geometry"/>
                </mxCell>
                <mxCell id="24" value="" style="endArrow=none;dashed=1;html=1;dashPattern=1 3;strokeWidth=2;" edge="1" parent="1">
                    <mxGeometry width="50" height="50" relative="1" as="geometry">
                        <mxPoint x="494" y="310" as="sourcePoint"/>
                        <mxPoint x="668" y="310" as="targetPoint"/>
                    </mxGeometry>
                </mxCell>
                <mxCell id="26" value="" style="endArrow=none;dashed=1;html=1;fontSize=16;fontColor=#000000;fillColor=#fa6800;strokeColor=#C73500;" edge="1" parent="1">
                    <mxGeometry width="50" height="50" relative="1" as="geometry">
                        <mxPoint x="199" y="210" as="sourcePoint"/>
                        <mxPoint x="999" y="210" as="targetPoint"/>
                    </mxGeometry>
                </mxCell>
                <mxCell id="27" value="" style="endArrow=none;dashed=1;html=1;fontSize=16;fontColor=#000000;fillColor=#fa6800;strokeColor=#C73500;" edge="1" parent="1">
                    <mxGeometry width="50" height="50" relative="1" as="geometry">
                        <mxPoint x="199" y="480" as="sourcePoint"/>
                        <mxPoint x="199" y="210" as="targetPoint"/>
                    </mxGeometry>
                </mxCell>
                <mxCell id="28" value="" style="endArrow=none;dashed=1;html=1;fontSize=16;fontColor=#000000;fillColor=#fa6800;strokeColor=#C73500;" edge="1" parent="1">
                    <mxGeometry width="50" height="50" relative="1" as="geometry">
                        <mxPoint x="199" y="480" as="sourcePoint"/>
                        <mxPoint x="999" y="480" as="targetPoint"/>
                    </mxGeometry>
                </mxCell>
                <mxCell id="29" value="" style="endArrow=none;dashed=1;html=1;fontSize=16;fontColor=#000000;fillColor=#fa6800;strokeColor=#C73500;" edge="1" parent="1">
                    <mxGeometry width="50" height="50" relative="1" as="geometry">
                        <mxPoint x="999" y="480" as="sourcePoint"/>
                        <mxPoint x="999" y="210" as="targetPoint"/>
                    </mxGeometry>
                </mxCell>
                <mxCell id="30" value="" style="endArrow=none;dashed=1;html=1;fontSize=16;fontColor=#000000;fillColor=#b0e3e6;strokeColor=#0e8088;" edge="1" parent="1">
                    <mxGeometry width="50" height="50" relative="1" as="geometry">
                        <mxPoint x="199" y="1050" as="sourcePoint"/>
                        <mxPoint x="199" y="530" as="targetPoint"/>
                    </mxGeometry>
                </mxCell>
                <mxCell id="31" value="" style="endArrow=none;dashed=1;html=1;fontSize=16;fontColor=#000000;fillColor=#b0e3e6;strokeColor=#0e8088;" edge="1" parent="1">
                    <mxGeometry width="50" height="50" relative="1" as="geometry">
                        <mxPoint x="999" y="1045" as="sourcePoint"/>
                        <mxPoint x="999" y="525" as="targetPoint"/>
                    </mxGeometry>
                </mxCell>
                <mxCell id="33" value="" style="endArrow=none;dashed=1;html=1;fontSize=16;fontColor=#000000;fillColor=#b0e3e6;strokeColor=#0e8088;" edge="1" parent="1">
                    <mxGeometry width="50" height="50" relative="1" as="geometry">
                        <mxPoint x="199" y="530" as="sourcePoint"/>
                        <mxPoint x="999" y="530" as="targetPoint"/>
                    </mxGeometry>
                </mxCell>
                <mxCell id="34" value="" style="endArrow=none;dashed=1;html=1;fontSize=16;fontColor=#000000;fillColor=#b0e3e6;strokeColor=#0e8088;" edge="1" parent="1">
                    <mxGeometry width="50" height="50" relative="1" as="geometry">
                        <mxPoint x="199" y="1050" as="sourcePoint"/>
                        <mxPoint x="999" y="1050" as="targetPoint"/>
                    </mxGeometry>
                </mxCell>
                <mxCell id="39" style="edgeStyle=none;html=1;exitX=0.5;exitY=1;exitDx=0;exitDy=0;fontSize=16;fontColor=#000000;" edge="1" parent="1" source="35">
                    <mxGeometry relative="1" as="geometry">
                        <mxPoint x="609.1428571428571" y="210" as="targetPoint"/>
                    </mxGeometry>
                </mxCell>
                <mxCell id="35" value="用户端" style="whiteSpace=wrap;html=1;align=center;verticalAlign=middle;treeFolding=1;treeMoving=1;newEdgeStyle={&quot;edgeStyle&quot;:&quot;elbowEdgeStyle&quot;,&quot;startArrow&quot;:&quot;none&quot;,&quot;endArrow&quot;:&quot;none&quot;};fontSize=16;fontColor=#ffffff;fillColor=#76608a;strokeColor=#432D57;" vertex="1" parent="1">
                    <mxGeometry x="559" y="130" width="100" height="50" as="geometry"/>
                </mxCell>
                <mxCell id="36" value="" style="edgeStyle=elbowEdgeStyle;elbow=vertical;startArrow=none;endArrow=none;rounded=0;fontSize=16;fontColor=#000000;" edge="1" target="35" parent="1">
                    <mxGeometry relative="1" as="geometry">
                        <mxPoint x="609" y="210" as="sourcePoint"/>
                    </mxGeometry>
                </mxCell>
                <mxCell id="38" style="edgeStyle=none;html=1;exitX=0.5;exitY=0;exitDx=0;exitDy=0;fontSize=16;fontColor=#000000;" edge="1" parent="1" source="37">
                    <mxGeometry relative="1" as="geometry">
                        <mxPoint x="598.6666666666665" y="1050" as="targetPoint"/>
                    </mxGeometry>
                </mxCell>
                <mxCell id="37" value="快递驿站端" style="whiteSpace=wrap;html=1;align=center;verticalAlign=middle;treeFolding=1;treeMoving=1;newEdgeStyle={&quot;edgeStyle&quot;:&quot;elbowEdgeStyle&quot;,&quot;startArrow&quot;:&quot;none&quot;,&quot;endArrow&quot;:&quot;none&quot;};fontSize=16;fontColor=#ffffff;fillColor=#60a917;strokeColor=#2D7600;" vertex="1" parent="1">
                    <mxGeometry x="549" y="1130" width="100" height="50" as="geometry"/>
                </mxCell>
                <mxCell id="43" value="&lt;font color=&quot;#000000&quot;&gt;快递驿站端&lt;/font&gt;" style="shape=mxgraph.signs.tech.computer;html=1;pointerEvents=1;fillColor=#008a00;strokeColor=#005700;verticalLabelPosition=bottom;verticalAlign=top;align=center;sketch=0;fontSize=16;fontColor=#ffffff;" vertex="1" parent="1">
                    <mxGeometry x="742" y="1200" width="98" height="98" as="geometry"/>
                </mxCell>
                <mxCell id="71" style="edgeStyle=orthogonalEdgeStyle;rounded=0;html=1;exitX=0.5;exitY=0;exitDx=0;exitDy=0;fontSize=9;fontColor=#000000;endArrow=none;endFill=0;strokeWidth=2;" edge="1" parent="1" source="47" target="41">
                    <mxGeometry relative="1" as="geometry"/>
                </mxCell>
                <mxCell id="47" value="&lt;p style=&quot;line-height: 1.2&quot;&gt;&lt;font style=&quot;font-size: 9px&quot;&gt;显示未取快递信息&lt;/font&gt;&lt;/p&gt;" style="rounded=0;whiteSpace=wrap;html=1;fontSize=16;rotation=0;fillColor=#b1ddf0;strokeColor=#10739e;" vertex="1" parent="1">
                    <mxGeometry x="242.75" y="1398" width="80" height="32" as="geometry"/>
                </mxCell>
                <mxCell id="72" style="edgeStyle=orthogonalEdgeStyle;rounded=0;html=1;exitX=0.5;exitY=0;exitDx=0;exitDy=0;fontSize=9;fontColor=#000000;endArrow=none;endFill=0;strokeWidth=2;" edge="1" parent="1" source="53">
                    <mxGeometry relative="1" as="geometry">
                        <mxPoint x="382.51724137931046" y="1350" as="targetPoint"/>
                    </mxGeometry>
                </mxCell>
                <mxCell id="53" value="显示错取快递信息" style="rounded=0;whiteSpace=wrap;html=1;fontSize=9;fillColor=#b1ddf0;strokeColor=#10739e;" vertex="1" parent="1">
                    <mxGeometry x="342.75" y="1398" width="80" height="32" as="geometry"/>
                </mxCell>
                <mxCell id="73" style="edgeStyle=orthogonalEdgeStyle;rounded=0;html=1;exitX=0.5;exitY=0;exitDx=0;exitDy=0;fontSize=9;fontColor=#000000;endArrow=none;endFill=0;strokeWidth=2;" edge="1" parent="1" source="57" target="41">
                    <mxGeometry relative="1" as="geometry"/>
                </mxCell>
                <mxCell id="57" value="显示错取快递用户信息" style="rounded=0;whiteSpace=wrap;html=1;fontSize=9;fillColor=#b1ddf0;strokeColor=#10739e;" vertex="1" parent="1">
                    <mxGeometry x="446.75" y="1398" width="80" height="32" as="geometry"/>
                </mxCell>
                <mxCell id="41" value="&lt;font color=&quot;#000000&quot;&gt;用户端&lt;/font&gt;" style="shape=mxgraph.signs.tech.cell_phone;html=1;pointerEvents=1;fillColor=#1ba1e2;strokeColor=#006EAF;verticalLabelPosition=bottom;verticalAlign=top;align=center;sketch=0;fontSize=16;fontColor=#ffffff;" vertex="1" parent="1">
                    <mxGeometry x="361.25" y="1202.25" width="47" height="98" as="geometry"/>
                </mxCell>
                <mxCell id="63" value="判断快递是否被错取" style="rounded=0;whiteSpace=wrap;html=1;fontSize=9;fillColor=#6d8764;strokeColor=#3A5431;fontColor=#ffffff;" vertex="1" parent="1">
                    <mxGeometry x="624" y="1400" width="80" height="30" as="geometry"/>
                </mxCell>
                <mxCell id="70" style="edgeStyle=orthogonalEdgeStyle;rounded=0;html=1;exitX=0.5;exitY=0;exitDx=0;exitDy=0;fontSize=9;fontColor=#000000;endArrow=none;endFill=0;strokeWidth=2;" edge="1" parent="1" source="68">
                    <mxGeometry relative="1" as="geometry">
                        <mxPoint x="790" y="1350" as="targetPoint"/>
                        <Array as="points">
                            <mxPoint x="940" y="1350"/>
                        </Array>
                    </mxGeometry>
                </mxCell>
                <mxCell id="68" value="通知涉及错取快递的两个用户" style="rounded=0;whiteSpace=wrap;html=1;fontSize=9;fillColor=#6d8764;strokeColor=#3A5431;fontColor=#ffffff;" vertex="1" parent="1">
                    <mxGeometry x="900" y="1398" width="80" height="30" as="geometry"/>
                </mxCell>
            </root>
        </mxGraphModel>
    </diagram>
</mxfile>